<mxfile host="app.diagrams.net" modified="2020-12-17T06:56:11.524Z" agent="5.0 (Windows NT 10.0; Win64; x64) AppleWebKit/537.36 (KHTML, like Gecko) Chrome/87.0.4280.88 Safari/537.36" etag="RM00xflBTg2JTY8RXgab" version="13.7.9" type="github">
  <diagram id="R2lEEEUBdFMjLlhIrx00" name="Page-1">
    <mxGraphModel dx="2272" dy="762" grid="1" gridSize="10" guides="1" tooltips="1" connect="1" arrows="1" fold="1" page="1" pageScale="1" pageWidth="850" pageHeight="1100" math="0" shadow="0" extFonts="Permanent Marker^https://fonts.googleapis.com/css?family=Permanent+Marker">
      <root>
        <mxCell id="0" />
        <mxCell id="1" parent="0" />
        <mxCell id="zqOuOfxdXCMFnPO1kolm-131" value="" style="edgeStyle=elbowEdgeStyle;endArrow=ERzeroToMany;startArrow=ERone;endFill=1;startFill=0;entryX=0.52;entryY=1.015;entryDx=0;entryDy=0;entryPerimeter=0;exitX=0.518;exitY=0.001;exitDx=0;exitDy=0;exitPerimeter=0;" edge="1" parent="1" source="zqOuOfxdXCMFnPO1kolm-88" target="zqOuOfxdXCMFnPO1kolm-138">
          <mxGeometry width="100" height="100" relative="1" as="geometry">
            <mxPoint x="-660" y="524" as="sourcePoint" />
            <mxPoint x="-660" y="385" as="targetPoint" />
            <Array as="points">
              <mxPoint x="-660" y="485" />
            </Array>
          </mxGeometry>
        </mxCell>
        <mxCell id="zqOuOfxdXCMFnPO1kolm-132" value="" style="edgeStyle=elbowEdgeStyle;endArrow=ERzeroToMany;startArrow=ERzeroToMany;endFill=1;startFill=1;" edge="1" parent="1">
          <mxGeometry width="100" height="100" relative="1" as="geometry">
            <mxPoint x="-540" y="160" as="sourcePoint" />
            <mxPoint x="-450" y="160" as="targetPoint" />
            <Array as="points">
              <mxPoint x="-479.75" y="265" />
            </Array>
          </mxGeometry>
        </mxCell>
        <mxCell id="zqOuOfxdXCMFnPO1kolm-133" value="" style="edgeStyle=elbowEdgeStyle;endArrow=ERzeroToMany;startArrow=ERzeroToMany;endFill=1;startFill=1;" edge="1" parent="1">
          <mxGeometry width="100" height="100" relative="1" as="geometry">
            <mxPoint x="-190" y="160" as="sourcePoint" />
            <mxPoint x="-100" y="160" as="targetPoint" />
            <Array as="points">
              <mxPoint x="-129.75" y="265" />
            </Array>
          </mxGeometry>
        </mxCell>
        <mxCell id="C-vyLk0tnHw3VtMMgP7b-2" value="Products" style="shape=table;startSize=30;container=1;collapsible=1;childLayout=tableLayout;fixedRows=1;rowLines=0;fontStyle=1;align=center;resizeLast=1;" parent="1" vertex="1">
          <mxGeometry x="-790" y="50" width="250" height="360" as="geometry">
            <mxRectangle x="-280" y="490" width="90" height="30" as="alternateBounds" />
          </mxGeometry>
        </mxCell>
        <mxCell id="zqOuOfxdXCMFnPO1kolm-1" value="" style="shape=partialRectangle;collapsible=0;dropTarget=0;pointerEvents=0;fillColor=none;points=[[0,0.5],[1,0.5]];portConstraint=eastwest;top=0;left=0;right=0;bottom=1;" vertex="1" parent="C-vyLk0tnHw3VtMMgP7b-2">
          <mxGeometry y="30" width="250" height="30" as="geometry" />
        </mxCell>
        <mxCell id="zqOuOfxdXCMFnPO1kolm-2" value="PK" style="shape=partialRectangle;overflow=hidden;connectable=0;fillColor=none;top=0;left=0;bottom=0;right=0;fontStyle=1;" vertex="1" parent="zqOuOfxdXCMFnPO1kolm-1">
          <mxGeometry width="30" height="30" as="geometry" />
        </mxCell>
        <mxCell id="zqOuOfxdXCMFnPO1kolm-3" value="id INT NOT NULL AUTO_INCREMENT" style="shape=partialRectangle;overflow=hidden;connectable=0;fillColor=none;top=0;left=0;bottom=0;right=0;align=left;spacingLeft=6;fontStyle=5;" vertex="1" parent="zqOuOfxdXCMFnPO1kolm-1">
          <mxGeometry x="30" width="220" height="30" as="geometry" />
        </mxCell>
        <mxCell id="C-vyLk0tnHw3VtMMgP7b-6" value="" style="shape=partialRectangle;collapsible=0;dropTarget=0;pointerEvents=0;fillColor=none;points=[[0,0.5],[1,0.5]];portConstraint=eastwest;top=0;left=0;right=0;bottom=0;" parent="C-vyLk0tnHw3VtMMgP7b-2" vertex="1">
          <mxGeometry y="60" width="250" height="30" as="geometry" />
        </mxCell>
        <mxCell id="C-vyLk0tnHw3VtMMgP7b-7" value="" style="shape=partialRectangle;overflow=hidden;connectable=0;fillColor=none;top=0;left=0;bottom=0;right=0;" parent="C-vyLk0tnHw3VtMMgP7b-6" vertex="1">
          <mxGeometry width="30" height="30" as="geometry" />
        </mxCell>
        <mxCell id="C-vyLk0tnHw3VtMMgP7b-8" value="nombre VARCHAR(61) NOT NULL" style="shape=partialRectangle;overflow=hidden;connectable=0;fillColor=none;top=0;left=0;bottom=0;right=0;align=left;spacingLeft=6;" parent="C-vyLk0tnHw3VtMMgP7b-6" vertex="1">
          <mxGeometry x="30" width="220" height="30" as="geometry" />
        </mxCell>
        <mxCell id="C-vyLk0tnHw3VtMMgP7b-9" value="" style="shape=partialRectangle;collapsible=0;dropTarget=0;pointerEvents=0;fillColor=none;points=[[0,0.5],[1,0.5]];portConstraint=eastwest;top=0;left=0;right=0;bottom=0;" parent="C-vyLk0tnHw3VtMMgP7b-2" vertex="1">
          <mxGeometry y="90" width="250" height="30" as="geometry" />
        </mxCell>
        <mxCell id="C-vyLk0tnHw3VtMMgP7b-10" value="" style="shape=partialRectangle;overflow=hidden;connectable=0;fillColor=none;top=0;left=0;bottom=0;right=0;" parent="C-vyLk0tnHw3VtMMgP7b-9" vertex="1">
          <mxGeometry width="30" height="30" as="geometry" />
        </mxCell>
        <mxCell id="C-vyLk0tnHw3VtMMgP7b-11" value="precio INT NOT NULL" style="shape=partialRectangle;overflow=hidden;connectable=0;fillColor=none;top=0;left=0;bottom=0;right=0;align=left;spacingLeft=6;" parent="C-vyLk0tnHw3VtMMgP7b-9" vertex="1">
          <mxGeometry x="30" width="220" height="30" as="geometry" />
        </mxCell>
        <mxCell id="zqOuOfxdXCMFnPO1kolm-24" style="shape=partialRectangle;collapsible=0;dropTarget=0;pointerEvents=0;fillColor=none;points=[[0,0.5],[1,0.5]];portConstraint=eastwest;top=0;left=0;right=0;bottom=0;" vertex="1" parent="C-vyLk0tnHw3VtMMgP7b-2">
          <mxGeometry y="120" width="250" height="30" as="geometry" />
        </mxCell>
        <mxCell id="zqOuOfxdXCMFnPO1kolm-25" style="shape=partialRectangle;overflow=hidden;connectable=0;fillColor=none;top=0;left=0;bottom=0;right=0;" vertex="1" parent="zqOuOfxdXCMFnPO1kolm-24">
          <mxGeometry width="30" height="30" as="geometry" />
        </mxCell>
        <mxCell id="zqOuOfxdXCMFnPO1kolm-26" value="descuento TINYINT NOT NULL" style="shape=partialRectangle;overflow=hidden;connectable=0;fillColor=none;top=0;left=0;bottom=0;right=0;align=left;spacingLeft=6;" vertex="1" parent="zqOuOfxdXCMFnPO1kolm-24">
          <mxGeometry x="30" width="220" height="30" as="geometry" />
        </mxCell>
        <mxCell id="zqOuOfxdXCMFnPO1kolm-27" style="shape=partialRectangle;collapsible=0;dropTarget=0;pointerEvents=0;fillColor=none;points=[[0,0.5],[1,0.5]];portConstraint=eastwest;top=0;left=0;right=0;bottom=0;" vertex="1" parent="C-vyLk0tnHw3VtMMgP7b-2">
          <mxGeometry y="150" width="250" height="30" as="geometry" />
        </mxCell>
        <mxCell id="zqOuOfxdXCMFnPO1kolm-28" style="shape=partialRectangle;overflow=hidden;connectable=0;fillColor=none;top=0;left=0;bottom=0;right=0;" vertex="1" parent="zqOuOfxdXCMFnPO1kolm-27">
          <mxGeometry width="30" height="30" as="geometry" />
        </mxCell>
        <mxCell id="zqOuOfxdXCMFnPO1kolm-29" value="stock SMALLINT NOT NULL" style="shape=partialRectangle;overflow=hidden;connectable=0;fillColor=none;top=0;left=0;bottom=0;right=0;align=left;spacingLeft=6;" vertex="1" parent="zqOuOfxdXCMFnPO1kolm-27">
          <mxGeometry x="30" width="220" height="30" as="geometry" />
        </mxCell>
        <mxCell id="zqOuOfxdXCMFnPO1kolm-30" style="shape=partialRectangle;collapsible=0;dropTarget=0;pointerEvents=0;fillColor=none;points=[[0,0.5],[1,0.5]];portConstraint=eastwest;top=0;left=0;right=0;bottom=0;" vertex="1" parent="C-vyLk0tnHw3VtMMgP7b-2">
          <mxGeometry y="180" width="250" height="30" as="geometry" />
        </mxCell>
        <mxCell id="zqOuOfxdXCMFnPO1kolm-31" style="shape=partialRectangle;overflow=hidden;connectable=0;fillColor=none;top=0;left=0;bottom=0;right=0;" vertex="1" parent="zqOuOfxdXCMFnPO1kolm-30">
          <mxGeometry width="30" height="30" as="geometry" />
        </mxCell>
        <mxCell id="zqOuOfxdXCMFnPO1kolm-32" value="descripcion VARCHAR(280)" style="shape=partialRectangle;overflow=hidden;connectable=0;fillColor=none;top=0;left=0;bottom=0;right=0;align=left;spacingLeft=6;" vertex="1" parent="zqOuOfxdXCMFnPO1kolm-30">
          <mxGeometry x="30" width="220" height="30" as="geometry" />
        </mxCell>
        <mxCell id="zqOuOfxdXCMFnPO1kolm-33" style="shape=partialRectangle;collapsible=0;dropTarget=0;pointerEvents=0;fillColor=none;points=[[0,0.5],[1,0.5]];portConstraint=eastwest;top=0;left=0;right=0;bottom=0;" vertex="1" parent="C-vyLk0tnHw3VtMMgP7b-2">
          <mxGeometry y="210" width="250" height="30" as="geometry" />
        </mxCell>
        <mxCell id="zqOuOfxdXCMFnPO1kolm-34" value="FK" style="shape=partialRectangle;overflow=hidden;connectable=0;fillColor=none;top=0;left=0;bottom=0;right=0;fontStyle=1" vertex="1" parent="zqOuOfxdXCMFnPO1kolm-33">
          <mxGeometry width="30" height="30" as="geometry" />
        </mxCell>
        <mxCell id="zqOuOfxdXCMFnPO1kolm-35" value="categoria_id TINYINT NOT NULL" style="shape=partialRectangle;overflow=hidden;connectable=0;fillColor=none;top=0;left=0;bottom=0;right=0;align=left;spacingLeft=6;fontStyle=1" vertex="1" parent="zqOuOfxdXCMFnPO1kolm-33">
          <mxGeometry x="30" width="220" height="30" as="geometry" />
        </mxCell>
        <mxCell id="zqOuOfxdXCMFnPO1kolm-36" style="shape=partialRectangle;collapsible=0;dropTarget=0;pointerEvents=0;fillColor=none;points=[[0,0.5],[1,0.5]];portConstraint=eastwest;top=0;left=0;right=0;bottom=0;" vertex="1" parent="C-vyLk0tnHw3VtMMgP7b-2">
          <mxGeometry y="240" width="250" height="30" as="geometry" />
        </mxCell>
        <mxCell id="zqOuOfxdXCMFnPO1kolm-37" style="shape=partialRectangle;overflow=hidden;connectable=0;fillColor=none;top=0;left=0;bottom=0;right=0;" vertex="1" parent="zqOuOfxdXCMFnPO1kolm-36">
          <mxGeometry width="30" height="30" as="geometry" />
        </mxCell>
        <mxCell id="zqOuOfxdXCMFnPO1kolm-38" value="imagen" style="shape=partialRectangle;overflow=hidden;connectable=0;fillColor=none;top=0;left=0;bottom=0;right=0;align=left;spacingLeft=6;" vertex="1" parent="zqOuOfxdXCMFnPO1kolm-36">
          <mxGeometry x="30" width="220" height="30" as="geometry" />
        </mxCell>
        <mxCell id="zqOuOfxdXCMFnPO1kolm-99" style="shape=partialRectangle;collapsible=0;dropTarget=0;pointerEvents=0;fillColor=none;points=[[0,0.5],[1,0.5]];portConstraint=eastwest;top=0;left=0;right=0;bottom=0;" vertex="1" parent="C-vyLk0tnHw3VtMMgP7b-2">
          <mxGeometry y="270" width="250" height="30" as="geometry" />
        </mxCell>
        <mxCell id="zqOuOfxdXCMFnPO1kolm-100" value="FK" style="shape=partialRectangle;overflow=hidden;connectable=0;fillColor=none;top=0;left=0;bottom=0;right=0;fontStyle=1" vertex="1" parent="zqOuOfxdXCMFnPO1kolm-99">
          <mxGeometry width="30" height="30" as="geometry" />
        </mxCell>
        <mxCell id="zqOuOfxdXCMFnPO1kolm-101" value="carrito_id TINYINT" style="shape=partialRectangle;overflow=hidden;connectable=0;fillColor=none;top=0;left=0;bottom=0;right=0;align=left;spacingLeft=6;fontStyle=1" vertex="1" parent="zqOuOfxdXCMFnPO1kolm-99">
          <mxGeometry x="30" width="220" height="30" as="geometry" />
        </mxCell>
        <mxCell id="zqOuOfxdXCMFnPO1kolm-102" style="shape=partialRectangle;collapsible=0;dropTarget=0;pointerEvents=0;fillColor=none;points=[[0,0.5],[1,0.5]];portConstraint=eastwest;top=0;left=0;right=0;bottom=0;" vertex="1" parent="C-vyLk0tnHw3VtMMgP7b-2">
          <mxGeometry y="300" width="250" height="30" as="geometry" />
        </mxCell>
        <mxCell id="zqOuOfxdXCMFnPO1kolm-103" style="shape=partialRectangle;overflow=hidden;connectable=0;fillColor=none;top=0;left=0;bottom=0;right=0;" vertex="1" parent="zqOuOfxdXCMFnPO1kolm-102">
          <mxGeometry width="30" height="30" as="geometry" />
        </mxCell>
        <mxCell id="zqOuOfxdXCMFnPO1kolm-104" value="" style="shape=partialRectangle;overflow=hidden;connectable=0;fillColor=none;top=0;left=0;bottom=0;right=0;align=left;spacingLeft=6;" vertex="1" parent="zqOuOfxdXCMFnPO1kolm-102">
          <mxGeometry x="30" width="220" height="30" as="geometry" />
        </mxCell>
        <mxCell id="zqOuOfxdXCMFnPO1kolm-138" style="shape=partialRectangle;collapsible=0;dropTarget=0;pointerEvents=0;fillColor=none;points=[[0,0.5],[1,0.5]];portConstraint=eastwest;top=0;left=0;right=0;bottom=0;" vertex="1" parent="C-vyLk0tnHw3VtMMgP7b-2">
          <mxGeometry y="330" width="250" height="30" as="geometry" />
        </mxCell>
        <mxCell id="zqOuOfxdXCMFnPO1kolm-139" style="shape=partialRectangle;overflow=hidden;connectable=0;fillColor=none;top=0;left=0;bottom=0;right=0;" vertex="1" parent="zqOuOfxdXCMFnPO1kolm-138">
          <mxGeometry width="30" height="30" as="geometry" />
        </mxCell>
        <mxCell id="zqOuOfxdXCMFnPO1kolm-140" value="updated_at TIMESTAMP" style="shape=partialRectangle;overflow=hidden;connectable=0;fillColor=none;top=0;left=0;bottom=0;right=0;align=left;spacingLeft=6;" vertex="1" parent="zqOuOfxdXCMFnPO1kolm-138">
          <mxGeometry x="30" width="220" height="30" as="geometry" />
        </mxCell>
        <mxCell id="C-vyLk0tnHw3VtMMgP7b-13" value="Users" style="shape=table;startSize=30;container=1;collapsible=1;childLayout=tableLayout;fixedRows=1;rowLines=0;fontStyle=1;align=center;resizeLast=1;" parent="1" vertex="1">
          <mxGeometry x="-90" y="465" width="260" height="340" as="geometry" />
        </mxCell>
        <mxCell id="C-vyLk0tnHw3VtMMgP7b-14" value="" style="shape=partialRectangle;collapsible=0;dropTarget=0;pointerEvents=0;fillColor=none;points=[[0,0.5],[1,0.5]];portConstraint=eastwest;top=0;left=0;right=0;bottom=1;" parent="C-vyLk0tnHw3VtMMgP7b-13" vertex="1">
          <mxGeometry y="30" width="260" height="30" as="geometry" />
        </mxCell>
        <mxCell id="C-vyLk0tnHw3VtMMgP7b-15" value="PK" style="shape=partialRectangle;overflow=hidden;connectable=0;fillColor=none;top=0;left=0;bottom=0;right=0;fontStyle=1;" parent="C-vyLk0tnHw3VtMMgP7b-14" vertex="1">
          <mxGeometry width="30" height="30" as="geometry" />
        </mxCell>
        <mxCell id="C-vyLk0tnHw3VtMMgP7b-16" value="id INT NOT NULL AUTO_INCREMENT" style="shape=partialRectangle;overflow=hidden;connectable=0;fillColor=none;top=0;left=0;bottom=0;right=0;align=left;spacingLeft=6;fontStyle=5;" parent="C-vyLk0tnHw3VtMMgP7b-14" vertex="1">
          <mxGeometry x="30" width="230" height="30" as="geometry" />
        </mxCell>
        <mxCell id="C-vyLk0tnHw3VtMMgP7b-17" value="" style="shape=partialRectangle;collapsible=0;dropTarget=0;pointerEvents=0;fillColor=none;points=[[0,0.5],[1,0.5]];portConstraint=eastwest;top=0;left=0;right=0;bottom=0;" parent="C-vyLk0tnHw3VtMMgP7b-13" vertex="1">
          <mxGeometry y="60" width="260" height="30" as="geometry" />
        </mxCell>
        <mxCell id="C-vyLk0tnHw3VtMMgP7b-18" value="" style="shape=partialRectangle;overflow=hidden;connectable=0;fillColor=none;top=0;left=0;bottom=0;right=0;" parent="C-vyLk0tnHw3VtMMgP7b-17" vertex="1">
          <mxGeometry width="30" height="30" as="geometry" />
        </mxCell>
        <mxCell id="C-vyLk0tnHw3VtMMgP7b-19" value="nombre VARCHAR(100) NOT NULL" style="shape=partialRectangle;overflow=hidden;connectable=0;fillColor=none;top=0;left=0;bottom=0;right=0;align=left;spacingLeft=6;" parent="C-vyLk0tnHw3VtMMgP7b-17" vertex="1">
          <mxGeometry x="30" width="230" height="30" as="geometry" />
        </mxCell>
        <mxCell id="zqOuOfxdXCMFnPO1kolm-41" style="shape=partialRectangle;collapsible=0;dropTarget=0;pointerEvents=0;fillColor=none;points=[[0,0.5],[1,0.5]];portConstraint=eastwest;top=0;left=0;right=0;bottom=0;" vertex="1" parent="C-vyLk0tnHw3VtMMgP7b-13">
          <mxGeometry y="90" width="260" height="30" as="geometry" />
        </mxCell>
        <mxCell id="zqOuOfxdXCMFnPO1kolm-42" style="shape=partialRectangle;overflow=hidden;connectable=0;fillColor=none;top=0;left=0;bottom=0;right=0;" vertex="1" parent="zqOuOfxdXCMFnPO1kolm-41">
          <mxGeometry width="30" height="30" as="geometry" />
        </mxCell>
        <mxCell id="zqOuOfxdXCMFnPO1kolm-43" value="email VARCHAR(100) NOT NULL" style="shape=partialRectangle;overflow=hidden;connectable=0;fillColor=none;top=0;left=0;bottom=0;right=0;align=left;spacingLeft=6;" vertex="1" parent="zqOuOfxdXCMFnPO1kolm-41">
          <mxGeometry x="30" width="230" height="30" as="geometry" />
        </mxCell>
        <mxCell id="zqOuOfxdXCMFnPO1kolm-44" style="shape=partialRectangle;collapsible=0;dropTarget=0;pointerEvents=0;fillColor=none;points=[[0,0.5],[1,0.5]];portConstraint=eastwest;top=0;left=0;right=0;bottom=0;" vertex="1" parent="C-vyLk0tnHw3VtMMgP7b-13">
          <mxGeometry y="120" width="260" height="30" as="geometry" />
        </mxCell>
        <mxCell id="zqOuOfxdXCMFnPO1kolm-45" style="shape=partialRectangle;overflow=hidden;connectable=0;fillColor=none;top=0;left=0;bottom=0;right=0;" vertex="1" parent="zqOuOfxdXCMFnPO1kolm-44">
          <mxGeometry width="30" height="30" as="geometry" />
        </mxCell>
        <mxCell id="zqOuOfxdXCMFnPO1kolm-46" value="contrasenia VARCHAR(100) NOT NULL" style="shape=partialRectangle;overflow=hidden;connectable=0;fillColor=none;top=0;left=0;bottom=0;right=0;align=left;spacingLeft=6;" vertex="1" parent="zqOuOfxdXCMFnPO1kolm-44">
          <mxGeometry x="30" width="230" height="30" as="geometry" />
        </mxCell>
        <mxCell id="C-vyLk0tnHw3VtMMgP7b-20" value="" style="shape=partialRectangle;collapsible=0;dropTarget=0;pointerEvents=0;fillColor=none;points=[[0,0.5],[1,0.5]];portConstraint=eastwest;top=0;left=0;right=0;bottom=0;" parent="C-vyLk0tnHw3VtMMgP7b-13" vertex="1">
          <mxGeometry y="150" width="260" height="30" as="geometry" />
        </mxCell>
        <mxCell id="C-vyLk0tnHw3VtMMgP7b-21" value="FK" style="shape=partialRectangle;overflow=hidden;connectable=0;fillColor=none;top=0;left=0;bottom=0;right=0;fontStyle=1" parent="C-vyLk0tnHw3VtMMgP7b-20" vertex="1">
          <mxGeometry width="30" height="30" as="geometry" />
        </mxCell>
        <mxCell id="C-vyLk0tnHw3VtMMgP7b-22" value="carrito_id TINYINT" style="shape=partialRectangle;overflow=hidden;connectable=0;fillColor=none;top=0;left=0;bottom=0;right=0;align=left;spacingLeft=6;fontStyle=1" parent="C-vyLk0tnHw3VtMMgP7b-20" vertex="1">
          <mxGeometry x="30" width="230" height="30" as="geometry" />
        </mxCell>
        <mxCell id="zqOuOfxdXCMFnPO1kolm-50" style="shape=partialRectangle;collapsible=0;dropTarget=0;pointerEvents=0;fillColor=none;points=[[0,0.5],[1,0.5]];portConstraint=eastwest;top=0;left=0;right=0;bottom=0;" vertex="1" parent="C-vyLk0tnHw3VtMMgP7b-13">
          <mxGeometry y="180" width="260" height="30" as="geometry" />
        </mxCell>
        <mxCell id="zqOuOfxdXCMFnPO1kolm-51" style="shape=partialRectangle;overflow=hidden;connectable=0;fillColor=none;top=0;left=0;bottom=0;right=0;" vertex="1" parent="zqOuOfxdXCMFnPO1kolm-50">
          <mxGeometry width="30" height="30" as="geometry" />
        </mxCell>
        <mxCell id="zqOuOfxdXCMFnPO1kolm-52" value="admin TINYINT NOT NULL" style="shape=partialRectangle;overflow=hidden;connectable=0;fillColor=none;top=0;left=0;bottom=0;right=0;align=left;spacingLeft=6;" vertex="1" parent="zqOuOfxdXCMFnPO1kolm-50">
          <mxGeometry x="30" width="230" height="30" as="geometry" />
        </mxCell>
        <mxCell id="zqOuOfxdXCMFnPO1kolm-53" style="shape=partialRectangle;collapsible=0;dropTarget=0;pointerEvents=0;fillColor=none;points=[[0,0.5],[1,0.5]];portConstraint=eastwest;top=0;left=0;right=0;bottom=0;" vertex="1" parent="C-vyLk0tnHw3VtMMgP7b-13">
          <mxGeometry y="210" width="260" height="30" as="geometry" />
        </mxCell>
        <mxCell id="zqOuOfxdXCMFnPO1kolm-54" style="shape=partialRectangle;overflow=hidden;connectable=0;fillColor=none;top=0;left=0;bottom=0;right=0;" vertex="1" parent="zqOuOfxdXCMFnPO1kolm-53">
          <mxGeometry width="30" height="30" as="geometry" />
        </mxCell>
        <mxCell id="zqOuOfxdXCMFnPO1kolm-55" value="verify TINYINT NOT NULL" style="shape=partialRectangle;overflow=hidden;connectable=0;fillColor=none;top=0;left=0;bottom=0;right=0;align=left;spacingLeft=6;" vertex="1" parent="zqOuOfxdXCMFnPO1kolm-53">
          <mxGeometry x="30" width="230" height="30" as="geometry" />
        </mxCell>
        <mxCell id="zqOuOfxdXCMFnPO1kolm-118" style="shape=partialRectangle;collapsible=0;dropTarget=0;pointerEvents=0;fillColor=none;points=[[0,0.5],[1,0.5]];portConstraint=eastwest;top=0;left=0;right=0;bottom=0;" vertex="1" parent="C-vyLk0tnHw3VtMMgP7b-13">
          <mxGeometry y="240" width="260" height="30" as="geometry" />
        </mxCell>
        <mxCell id="zqOuOfxdXCMFnPO1kolm-119" style="shape=partialRectangle;overflow=hidden;connectable=0;fillColor=none;top=0;left=0;bottom=0;right=0;" vertex="1" parent="zqOuOfxdXCMFnPO1kolm-118">
          <mxGeometry width="30" height="30" as="geometry" />
        </mxCell>
        <mxCell id="zqOuOfxdXCMFnPO1kolm-120" value="verify_code VARCHAR(50) NOT NULL" style="shape=partialRectangle;overflow=hidden;connectable=0;fillColor=none;top=0;left=0;bottom=0;right=0;align=left;spacingLeft=6;" vertex="1" parent="zqOuOfxdXCMFnPO1kolm-118">
          <mxGeometry x="30" width="230" height="30" as="geometry" />
        </mxCell>
        <mxCell id="zqOuOfxdXCMFnPO1kolm-121" style="shape=partialRectangle;collapsible=0;dropTarget=0;pointerEvents=0;fillColor=none;points=[[0,0.5],[1,0.5]];portConstraint=eastwest;top=0;left=0;right=0;bottom=0;" vertex="1" parent="C-vyLk0tnHw3VtMMgP7b-13">
          <mxGeometry y="270" width="260" height="30" as="geometry" />
        </mxCell>
        <mxCell id="zqOuOfxdXCMFnPO1kolm-122" style="shape=partialRectangle;overflow=hidden;connectable=0;fillColor=none;top=0;left=0;bottom=0;right=0;" vertex="1" parent="zqOuOfxdXCMFnPO1kolm-121">
          <mxGeometry width="30" height="30" as="geometry" />
        </mxCell>
        <mxCell id="zqOuOfxdXCMFnPO1kolm-123" value="created_at TIMESTAMP" style="shape=partialRectangle;overflow=hidden;connectable=0;fillColor=none;top=0;left=0;bottom=0;right=0;align=left;spacingLeft=6;" vertex="1" parent="zqOuOfxdXCMFnPO1kolm-121">
          <mxGeometry x="30" width="230" height="30" as="geometry" />
        </mxCell>
        <mxCell id="zqOuOfxdXCMFnPO1kolm-134" style="shape=partialRectangle;collapsible=0;dropTarget=0;pointerEvents=0;fillColor=none;points=[[0,0.5],[1,0.5]];portConstraint=eastwest;top=0;left=0;right=0;bottom=0;" vertex="1" parent="C-vyLk0tnHw3VtMMgP7b-13">
          <mxGeometry y="300" width="260" height="30" as="geometry" />
        </mxCell>
        <mxCell id="zqOuOfxdXCMFnPO1kolm-135" style="shape=partialRectangle;overflow=hidden;connectable=0;fillColor=none;top=0;left=0;bottom=0;right=0;" vertex="1" parent="zqOuOfxdXCMFnPO1kolm-134">
          <mxGeometry width="30" height="30" as="geometry" />
        </mxCell>
        <mxCell id="zqOuOfxdXCMFnPO1kolm-136" value="updated_at TIMESTAMP" style="shape=partialRectangle;overflow=hidden;connectable=0;fillColor=none;top=0;left=0;bottom=0;right=0;align=left;spacingLeft=6;" vertex="1" parent="zqOuOfxdXCMFnPO1kolm-134">
          <mxGeometry x="30" width="230" height="30" as="geometry" />
        </mxCell>
        <mxCell id="zqOuOfxdXCMFnPO1kolm-137" value="" style="edgeStyle=elbowEdgeStyle;endArrow=ERzeroToOne;startArrow=ERzeroToOne;endFill=1;startFill=1;exitX=0.5;exitY=1;exitDx=0;exitDy=0;entryX=0.5;entryY=0;entryDx=0;entryDy=0;" edge="1" parent="1" source="zqOuOfxdXCMFnPO1kolm-56" target="C-vyLk0tnHw3VtMMgP7b-13">
          <mxGeometry width="100" height="100" relative="1" as="geometry">
            <mxPoint x="40" y="380" as="sourcePoint" />
            <mxPoint x="40" y="460" as="targetPoint" />
            <Array as="points">
              <mxPoint x="40" y="410" />
            </Array>
          </mxGeometry>
        </mxCell>
        <mxCell id="zqOuOfxdXCMFnPO1kolm-78" value="Cart_Product" style="shape=table;startSize=30;container=1;collapsible=1;childLayout=tableLayout;fixedRows=1;rowLines=0;fontStyle=1;align=center;resizeLast=1;" vertex="1" parent="1">
          <mxGeometry x="-450" y="50" width="260" height="190" as="geometry" />
        </mxCell>
        <mxCell id="zqOuOfxdXCMFnPO1kolm-79" value="" style="shape=partialRectangle;collapsible=0;dropTarget=0;pointerEvents=0;fillColor=none;points=[[0,0.5],[1,0.5]];portConstraint=eastwest;top=0;left=0;right=0;bottom=1;" vertex="1" parent="zqOuOfxdXCMFnPO1kolm-78">
          <mxGeometry y="30" width="260" height="30" as="geometry" />
        </mxCell>
        <mxCell id="zqOuOfxdXCMFnPO1kolm-80" value="PK" style="shape=partialRectangle;overflow=hidden;connectable=0;fillColor=none;top=0;left=0;bottom=0;right=0;fontStyle=1;" vertex="1" parent="zqOuOfxdXCMFnPO1kolm-79">
          <mxGeometry width="30" height="30" as="geometry" />
        </mxCell>
        <mxCell id="zqOuOfxdXCMFnPO1kolm-81" value="id INT NOT NULL AUTO_INCREMENT" style="shape=partialRectangle;overflow=hidden;connectable=0;fillColor=none;top=0;left=0;bottom=0;right=0;align=left;spacingLeft=6;fontStyle=5;" vertex="1" parent="zqOuOfxdXCMFnPO1kolm-79">
          <mxGeometry x="30" width="230" height="30" as="geometry" />
        </mxCell>
        <mxCell id="zqOuOfxdXCMFnPO1kolm-82" value="" style="shape=partialRectangle;collapsible=0;dropTarget=0;pointerEvents=0;fillColor=none;points=[[0,0.5],[1,0.5]];portConstraint=eastwest;top=0;left=0;right=0;bottom=0;" vertex="1" parent="zqOuOfxdXCMFnPO1kolm-78">
          <mxGeometry y="60" width="260" height="30" as="geometry" />
        </mxCell>
        <mxCell id="zqOuOfxdXCMFnPO1kolm-83" value="FK" style="shape=partialRectangle;overflow=hidden;connectable=0;fillColor=none;top=0;left=0;bottom=0;right=0;fontStyle=1" vertex="1" parent="zqOuOfxdXCMFnPO1kolm-82">
          <mxGeometry width="30" height="30" as="geometry" />
        </mxCell>
        <mxCell id="zqOuOfxdXCMFnPO1kolm-84" value="carrito_id TINYINT" style="shape=partialRectangle;overflow=hidden;connectable=0;fillColor=none;top=0;left=0;bottom=0;right=0;align=left;spacingLeft=6;fontStyle=1" vertex="1" parent="zqOuOfxdXCMFnPO1kolm-82">
          <mxGeometry x="30" width="230" height="30" as="geometry" />
        </mxCell>
        <mxCell id="zqOuOfxdXCMFnPO1kolm-85" style="shape=partialRectangle;collapsible=0;dropTarget=0;pointerEvents=0;fillColor=none;points=[[0,0.5],[1,0.5]];portConstraint=eastwest;top=0;left=0;right=0;bottom=0;" vertex="1" parent="zqOuOfxdXCMFnPO1kolm-78">
          <mxGeometry y="90" width="260" height="30" as="geometry" />
        </mxCell>
        <mxCell id="zqOuOfxdXCMFnPO1kolm-86" value="FK" style="shape=partialRectangle;overflow=hidden;connectable=0;fillColor=none;top=0;left=0;bottom=0;right=0;fontStyle=1" vertex="1" parent="zqOuOfxdXCMFnPO1kolm-85">
          <mxGeometry width="30" height="30" as="geometry" />
        </mxCell>
        <mxCell id="zqOuOfxdXCMFnPO1kolm-87" value="producto _id TINYINT" style="shape=partialRectangle;overflow=hidden;connectable=0;fillColor=none;top=0;left=0;bottom=0;right=0;align=left;spacingLeft=6;fontStyle=1" vertex="1" parent="zqOuOfxdXCMFnPO1kolm-85">
          <mxGeometry x="30" width="230" height="30" as="geometry" />
        </mxCell>
        <mxCell id="zqOuOfxdXCMFnPO1kolm-124" style="shape=partialRectangle;collapsible=0;dropTarget=0;pointerEvents=0;fillColor=none;points=[[0,0.5],[1,0.5]];portConstraint=eastwest;top=0;left=0;right=0;bottom=0;" vertex="1" parent="zqOuOfxdXCMFnPO1kolm-78">
          <mxGeometry y="120" width="260" height="30" as="geometry" />
        </mxCell>
        <mxCell id="zqOuOfxdXCMFnPO1kolm-125" style="shape=partialRectangle;overflow=hidden;connectable=0;fillColor=none;top=0;left=0;bottom=0;right=0;" vertex="1" parent="zqOuOfxdXCMFnPO1kolm-124">
          <mxGeometry width="30" height="30" as="geometry" />
        </mxCell>
        <mxCell id="zqOuOfxdXCMFnPO1kolm-126" value="created_at TIMESTAMP" style="shape=partialRectangle;overflow=hidden;connectable=0;fillColor=none;top=0;left=0;bottom=0;right=0;align=left;spacingLeft=6;" vertex="1" parent="zqOuOfxdXCMFnPO1kolm-124">
          <mxGeometry x="30" width="230" height="30" as="geometry" />
        </mxCell>
        <mxCell id="zqOuOfxdXCMFnPO1kolm-127" style="shape=partialRectangle;collapsible=0;dropTarget=0;pointerEvents=0;fillColor=none;points=[[0,0.5],[1,0.5]];portConstraint=eastwest;top=0;left=0;right=0;bottom=0;" vertex="1" parent="zqOuOfxdXCMFnPO1kolm-78">
          <mxGeometry y="150" width="260" height="30" as="geometry" />
        </mxCell>
        <mxCell id="zqOuOfxdXCMFnPO1kolm-128" style="shape=partialRectangle;overflow=hidden;connectable=0;fillColor=none;top=0;left=0;bottom=0;right=0;" vertex="1" parent="zqOuOfxdXCMFnPO1kolm-127">
          <mxGeometry width="30" height="30" as="geometry" />
        </mxCell>
        <mxCell id="zqOuOfxdXCMFnPO1kolm-129" value="updated_at TIMESTAMP" style="shape=partialRectangle;overflow=hidden;connectable=0;fillColor=none;top=0;left=0;bottom=0;right=0;align=left;spacingLeft=6;" vertex="1" parent="zqOuOfxdXCMFnPO1kolm-127">
          <mxGeometry x="30" width="230" height="30" as="geometry" />
        </mxCell>
        <mxCell id="zqOuOfxdXCMFnPO1kolm-56" value="Carts" style="shape=table;startSize=30;container=1;collapsible=1;childLayout=tableLayout;fixedRows=1;rowLines=0;fontStyle=1;align=center;resizeLast=1;" vertex="1" parent="1">
          <mxGeometry x="-100" y="50" width="260" height="190" as="geometry" />
        </mxCell>
        <mxCell id="zqOuOfxdXCMFnPO1kolm-57" value="" style="shape=partialRectangle;collapsible=0;dropTarget=0;pointerEvents=0;fillColor=none;points=[[0,0.5],[1,0.5]];portConstraint=eastwest;top=0;left=0;right=0;bottom=1;" vertex="1" parent="zqOuOfxdXCMFnPO1kolm-56">
          <mxGeometry y="30" width="260" height="30" as="geometry" />
        </mxCell>
        <mxCell id="zqOuOfxdXCMFnPO1kolm-58" value="PK" style="shape=partialRectangle;overflow=hidden;connectable=0;fillColor=none;top=0;left=0;bottom=0;right=0;fontStyle=1;" vertex="1" parent="zqOuOfxdXCMFnPO1kolm-57">
          <mxGeometry width="30" height="30" as="geometry" />
        </mxCell>
        <mxCell id="zqOuOfxdXCMFnPO1kolm-59" value="id INT NOT NULL AUTO_INCREMENT" style="shape=partialRectangle;overflow=hidden;connectable=0;fillColor=none;top=0;left=0;bottom=0;right=0;align=left;spacingLeft=6;fontStyle=5;" vertex="1" parent="zqOuOfxdXCMFnPO1kolm-57">
          <mxGeometry x="30" width="230" height="30" as="geometry" />
        </mxCell>
        <mxCell id="zqOuOfxdXCMFnPO1kolm-60" value="" style="shape=partialRectangle;collapsible=0;dropTarget=0;pointerEvents=0;fillColor=none;points=[[0,0.5],[1,0.5]];portConstraint=eastwest;top=0;left=0;right=0;bottom=0;" vertex="1" parent="zqOuOfxdXCMFnPO1kolm-56">
          <mxGeometry y="60" width="260" height="30" as="geometry" />
        </mxCell>
        <mxCell id="zqOuOfxdXCMFnPO1kolm-61" value="FK" style="shape=partialRectangle;overflow=hidden;connectable=0;fillColor=none;top=0;left=0;bottom=0;right=0;fontStyle=1" vertex="1" parent="zqOuOfxdXCMFnPO1kolm-60">
          <mxGeometry width="30" height="30" as="geometry" />
        </mxCell>
        <mxCell id="zqOuOfxdXCMFnPO1kolm-62" value="usuario_id TINYINT NOT NULL" style="shape=partialRectangle;overflow=hidden;connectable=0;fillColor=none;top=0;left=0;bottom=0;right=0;align=left;spacingLeft=6;fontStyle=1" vertex="1" parent="zqOuOfxdXCMFnPO1kolm-60">
          <mxGeometry x="30" width="230" height="30" as="geometry" />
        </mxCell>
        <mxCell id="zqOuOfxdXCMFnPO1kolm-63" style="shape=partialRectangle;collapsible=0;dropTarget=0;pointerEvents=0;fillColor=none;points=[[0,0.5],[1,0.5]];portConstraint=eastwest;top=0;left=0;right=0;bottom=0;" vertex="1" parent="zqOuOfxdXCMFnPO1kolm-56">
          <mxGeometry y="90" width="260" height="30" as="geometry" />
        </mxCell>
        <mxCell id="zqOuOfxdXCMFnPO1kolm-64" style="shape=partialRectangle;overflow=hidden;connectable=0;fillColor=none;top=0;left=0;bottom=0;right=0;" vertex="1" parent="zqOuOfxdXCMFnPO1kolm-63">
          <mxGeometry width="30" height="30" as="geometry" />
        </mxCell>
        <mxCell id="zqOuOfxdXCMFnPO1kolm-65" value="estado TINYINT NOT NULL" style="shape=partialRectangle;overflow=hidden;connectable=0;fillColor=none;top=0;left=0;bottom=0;right=0;align=left;spacingLeft=6;" vertex="1" parent="zqOuOfxdXCMFnPO1kolm-63">
          <mxGeometry x="30" width="230" height="30" as="geometry" />
        </mxCell>
        <mxCell id="zqOuOfxdXCMFnPO1kolm-112" style="shape=partialRectangle;collapsible=0;dropTarget=0;pointerEvents=0;fillColor=none;points=[[0,0.5],[1,0.5]];portConstraint=eastwest;top=0;left=0;right=0;bottom=0;" vertex="1" parent="zqOuOfxdXCMFnPO1kolm-56">
          <mxGeometry y="120" width="260" height="30" as="geometry" />
        </mxCell>
        <mxCell id="zqOuOfxdXCMFnPO1kolm-113" style="shape=partialRectangle;overflow=hidden;connectable=0;fillColor=none;top=0;left=0;bottom=0;right=0;" vertex="1" parent="zqOuOfxdXCMFnPO1kolm-112">
          <mxGeometry width="30" height="30" as="geometry" />
        </mxCell>
        <mxCell id="zqOuOfxdXCMFnPO1kolm-114" value="created_at TIMESTAMP" style="shape=partialRectangle;overflow=hidden;connectable=0;fillColor=none;top=0;left=0;bottom=0;right=0;align=left;spacingLeft=6;" vertex="1" parent="zqOuOfxdXCMFnPO1kolm-112">
          <mxGeometry x="30" width="230" height="30" as="geometry" />
        </mxCell>
        <mxCell id="zqOuOfxdXCMFnPO1kolm-115" style="shape=partialRectangle;collapsible=0;dropTarget=0;pointerEvents=0;fillColor=none;points=[[0,0.5],[1,0.5]];portConstraint=eastwest;top=0;left=0;right=0;bottom=0;" vertex="1" parent="zqOuOfxdXCMFnPO1kolm-56">
          <mxGeometry y="150" width="260" height="30" as="geometry" />
        </mxCell>
        <mxCell id="zqOuOfxdXCMFnPO1kolm-116" style="shape=partialRectangle;overflow=hidden;connectable=0;fillColor=none;top=0;left=0;bottom=0;right=0;" vertex="1" parent="zqOuOfxdXCMFnPO1kolm-115">
          <mxGeometry width="30" height="30" as="geometry" />
        </mxCell>
        <mxCell id="zqOuOfxdXCMFnPO1kolm-117" value="updated_at TIMESTAMP" style="shape=partialRectangle;overflow=hidden;connectable=0;fillColor=none;top=0;left=0;bottom=0;right=0;align=left;spacingLeft=6;" vertex="1" parent="zqOuOfxdXCMFnPO1kolm-115">
          <mxGeometry x="30" width="230" height="30" as="geometry" />
        </mxCell>
        <mxCell id="zqOuOfxdXCMFnPO1kolm-88" value="Categories" style="shape=table;startSize=30;container=1;collapsible=1;childLayout=tableLayout;fixedRows=1;rowLines=0;fontStyle=1;align=center;resizeLast=1;" vertex="1" parent="1">
          <mxGeometry x="-795" y="465" width="260" height="190.00000000000023" as="geometry" />
        </mxCell>
        <mxCell id="zqOuOfxdXCMFnPO1kolm-89" value="" style="shape=partialRectangle;collapsible=0;dropTarget=0;pointerEvents=0;fillColor=none;points=[[0,0.5],[1,0.5]];portConstraint=eastwest;top=0;left=0;right=0;bottom=1;" vertex="1" parent="zqOuOfxdXCMFnPO1kolm-88">
          <mxGeometry y="30" width="260" height="30" as="geometry" />
        </mxCell>
        <mxCell id="zqOuOfxdXCMFnPO1kolm-90" value="PK" style="shape=partialRectangle;overflow=hidden;connectable=0;fillColor=none;top=0;left=0;bottom=0;right=0;fontStyle=1;" vertex="1" parent="zqOuOfxdXCMFnPO1kolm-89">
          <mxGeometry width="30" height="30" as="geometry" />
        </mxCell>
        <mxCell id="zqOuOfxdXCMFnPO1kolm-91" value="id INT NOT NULL AUTO_INCREMENT" style="shape=partialRectangle;overflow=hidden;connectable=0;fillColor=none;top=0;left=0;bottom=0;right=0;align=left;spacingLeft=6;fontStyle=5;" vertex="1" parent="zqOuOfxdXCMFnPO1kolm-89">
          <mxGeometry x="30" width="230" height="30" as="geometry" />
        </mxCell>
        <mxCell id="zqOuOfxdXCMFnPO1kolm-92" value="" style="shape=partialRectangle;collapsible=0;dropTarget=0;pointerEvents=0;fillColor=none;points=[[0,0.5],[1,0.5]];portConstraint=eastwest;top=0;left=0;right=0;bottom=0;" vertex="1" parent="zqOuOfxdXCMFnPO1kolm-88">
          <mxGeometry y="60" width="260" height="30" as="geometry" />
        </mxCell>
        <mxCell id="zqOuOfxdXCMFnPO1kolm-93" value="" style="shape=partialRectangle;overflow=hidden;connectable=0;fillColor=none;top=0;left=0;bottom=0;right=0;" vertex="1" parent="zqOuOfxdXCMFnPO1kolm-92">
          <mxGeometry width="30" height="30" as="geometry" />
        </mxCell>
        <mxCell id="zqOuOfxdXCMFnPO1kolm-94" value="nombre VARCHAR(50) NOT NULL" style="shape=partialRectangle;overflow=hidden;connectable=0;fillColor=none;top=0;left=0;bottom=0;right=0;align=left;spacingLeft=6;" vertex="1" parent="zqOuOfxdXCMFnPO1kolm-92">
          <mxGeometry x="30" width="230" height="30" as="geometry" />
        </mxCell>
        <mxCell id="zqOuOfxdXCMFnPO1kolm-95" style="shape=partialRectangle;collapsible=0;dropTarget=0;pointerEvents=0;fillColor=none;points=[[0,0.5],[1,0.5]];portConstraint=eastwest;top=0;left=0;right=0;bottom=0;" vertex="1" parent="zqOuOfxdXCMFnPO1kolm-88">
          <mxGeometry y="90" width="260" height="30" as="geometry" />
        </mxCell>
        <mxCell id="zqOuOfxdXCMFnPO1kolm-96" style="shape=partialRectangle;overflow=hidden;connectable=0;fillColor=none;top=0;left=0;bottom=0;right=0;" vertex="1" parent="zqOuOfxdXCMFnPO1kolm-95">
          <mxGeometry width="30" height="30" as="geometry" />
        </mxCell>
        <mxCell id="zqOuOfxdXCMFnPO1kolm-97" value="activo TINYINT NOT NULL" style="shape=partialRectangle;overflow=hidden;connectable=0;fillColor=none;top=0;left=0;bottom=0;right=0;align=left;spacingLeft=6;" vertex="1" parent="zqOuOfxdXCMFnPO1kolm-95">
          <mxGeometry x="30" width="230" height="30" as="geometry" />
        </mxCell>
        <mxCell id="zqOuOfxdXCMFnPO1kolm-106" style="shape=partialRectangle;collapsible=0;dropTarget=0;pointerEvents=0;fillColor=none;points=[[0,0.5],[1,0.5]];portConstraint=eastwest;top=0;left=0;right=0;bottom=0;" vertex="1" parent="zqOuOfxdXCMFnPO1kolm-88">
          <mxGeometry y="120" width="260" height="30" as="geometry" />
        </mxCell>
        <mxCell id="zqOuOfxdXCMFnPO1kolm-107" style="shape=partialRectangle;overflow=hidden;connectable=0;fillColor=none;top=0;left=0;bottom=0;right=0;" vertex="1" parent="zqOuOfxdXCMFnPO1kolm-106">
          <mxGeometry width="30" height="30" as="geometry" />
        </mxCell>
        <mxCell id="zqOuOfxdXCMFnPO1kolm-108" value="created_at TIMESTAMP" style="shape=partialRectangle;overflow=hidden;connectable=0;fillColor=none;top=0;left=0;bottom=0;right=0;align=left;spacingLeft=6;" vertex="1" parent="zqOuOfxdXCMFnPO1kolm-106">
          <mxGeometry x="30" width="230" height="30" as="geometry" />
        </mxCell>
        <mxCell id="zqOuOfxdXCMFnPO1kolm-109" style="shape=partialRectangle;collapsible=0;dropTarget=0;pointerEvents=0;fillColor=none;points=[[0,0.5],[1,0.5]];portConstraint=eastwest;top=0;left=0;right=0;bottom=0;" vertex="1" parent="zqOuOfxdXCMFnPO1kolm-88">
          <mxGeometry y="150" width="260" height="30" as="geometry" />
        </mxCell>
        <mxCell id="zqOuOfxdXCMFnPO1kolm-110" style="shape=partialRectangle;overflow=hidden;connectable=0;fillColor=none;top=0;left=0;bottom=0;right=0;" vertex="1" parent="zqOuOfxdXCMFnPO1kolm-109">
          <mxGeometry width="30" height="30" as="geometry" />
        </mxCell>
        <mxCell id="zqOuOfxdXCMFnPO1kolm-111" value="updated_at TIMESTAMP" style="shape=partialRectangle;overflow=hidden;connectable=0;fillColor=none;top=0;left=0;bottom=0;right=0;align=left;spacingLeft=6;" vertex="1" parent="zqOuOfxdXCMFnPO1kolm-109">
          <mxGeometry x="30" width="230" height="30" as="geometry" />
        </mxCell>
        <mxCell id="zqOuOfxdXCMFnPO1kolm-141" value="created_at TIMESTAMP" style="shape=partialRectangle;overflow=hidden;connectable=0;fillColor=none;top=0;left=0;bottom=0;right=0;align=left;spacingLeft=6;" vertex="1" parent="1">
          <mxGeometry x="-760" y="350" width="220" height="30" as="geometry" />
        </mxCell>
      </root>
    </mxGraphModel>
  </diagram>
</mxfile>
